# xmcd
#
# Track frame offsets: 
#        182
#        18647
#        40132
#        60315
#        104690
#        120455
#        137557
#        163925
#        191812
#        208687
#        225232
#        234515
#        262222
#        286202
#
# Disc length: 4182 seconds
#
# Revision: 5
# Processed by: cddbd v1.5.2PL0 Copyright (c) Steve Scherf et al.
# Submitted via: ExactAudioCopy v1.0b1
#
DISCID=c810540e
DTITLE=Rev Brown - Bare In Change
DYEAR=1991
DGENRE=Blues
TTITLE0=I Can Only Sing The Blues
TTITLE1=Up The Dirt Track
TTITLE2=There Ain't Enough Hours In The Day
TTITLE3=Girlfriend Blues
TTITLE4=Full Throttle Fever
TTITLE5=Dimples
TTITLE6=The Blues Are Taking Me Higher
TTITLE7=Love Me Babe
TTITLE8=New Day Blues
TTITLE9=Slow Train Blues
TTITLE10=Tomorrow Is An Other Day Blues
TTITLE11=Religion Blues
TTITLE12=I Still Need Love
TTITLE13=Holy Grail Blues
EXTD=00018
EXTT0=
EXTT1=
EXTT2=
EXTT3=
EXTT4=
EXTT5=
EXTT6=
EXTT7=
EXTT8=
EXTT9=
EXTT10=
EXTT11=
EXTT12=
EXTT13=
PLAYORDER=
